<?xml version="1.0" encoding="utf-8"?>
<!-- Generator: Adobe Illustrator 25.4.1, SVG Export Plug-In . SVG Version: 6.00 Build 0)  -->
<svg version="1.1" id="Capa_1" xmlns="http://www.w3.org/2000/svg" xmlns:xlink="http://www.w3.org/1999/xlink" x="0px" y="0px"
	 viewBox="0 0 512 512" style="enable-background:new 0 0 512 512;" xml:space="preserve">
<style type="text/css">
	.st0{fill:#2D91AA;}
	.st1{fill:#ED8B33;}
	.st2{fill:#FDFDFD;}
</style>
<g>
	<path class="st0" d="M240.6,78.1c5.6-9.1,11.2-18.2,16.8-27.2c1.6-2.5,2.9-2.1,4.4,0.2c5,7.9,10.1,15.8,15.2,23.7
		c0.7,1.1,1.9,2.4,1,3.7c-1.2,1.8-2.8,0.3-4.2,0.1c-1.3-0.2-2.6-0.8-3.9-1c-3.5-0.8-4.6,0.4-3.1,3.8c3,7,5.6,14.1,6.4,21.7
		c2.9,28.3-13.7,55.9-38.5,69.5c-14.7,8.1-30.5,12.3-45.6,18.6c-35.3,14.5-44.6,47.8-33.4,77.5c7,18.6,22.3,27.7,40.9,32.2
		c3.2,0.8,4.4-0.8,3.8-3.5c-3.1-14,7-20.3,15.5-27.7c2.4-2.1,4.1-2.1,6.2,0c4.5,4.4,9.2,8.5,13.5,13c3.5,3.7,1.7,8.6,1.6,12.9
		c-0.1,5.4,1.3,7,6.9,5.7c11.5-2.5,22.5-6,31.8-13.3c10.5-8.3,16.1-18.9,13.3-32.8c-0.3-1.7-1.4-4.5,1.1-5.2c2.4-0.7,3.2,2,4,3.7
		c7.1,13.7,5.4,26.7-3,39.2c-12.2,18.2-30.7,26-50.9,30.6c-29,6.6-57.1,4.5-82.3-12.6c-42.8-28.9-43.4-97.3-2.3-128.6
		c16.7-12.7,36-18.3,55.1-25c7.2-2.5,13.8-6.2,20.1-10.5c3.8-2.6,3.6-5.1,1.6-8.3c-1.4-2.2-3.1-4.3-4.4-6.6
		c-1.8-3.2-3.8-4.3-6.8-1.5c-2,1.8-4.1,2.8-6.4,0.3c-1.7-1.8-3.5-3-5.6-0.6c-1.9,2.3-4.9,4.4-2.5,8c2.3,3.5,4.7,7.1,7,10.6
		c0.7,1.1,1.8,2.3,0.5,3.5c-1.4,1.3-3,0.8-4.1-0.6c-1.3-1.8-2.8-3.6-3.6-5.6c-2.2-6.2-8-7.2-13-9.2c-3.1-1.2-4.3,1.3-5.9,3.2
		c-1.6,2.1-3.1,3.7-5.8,0.8c-4.4-4.7-11.6-4-15.3,1.4c-3.9,5.7-7.3,11.7-11,17.6c-1,1.6-2,4.1-4.5,2.7c-2.2-1.3-1.2-3.7-0.1-5.3
		c10.2-15.8,20.4-31.4,30.6-47.2c2.4-3.8,4.6-2.8,6.7,0.1c3.9,5.4,7.8,10.9,11.5,16.5c2,3,3.4,3.1,5.3,0.1c2.7-4.4,5.3-8.8,8.2-13.1
		c3.4-5.1,5.4-5.2,8.9,0c4.1,6,7.5,12.5,11.6,18.6c4.9,7.2,5.9,7.1,11.1,0.5c12.3-15.6,13.7-33.4,10.7-52.1c-0.7-4.3-3.3-4-6.4-3.1
		c-2.5,0.7-5.1,1.3-7.6,1.9C241.3,79,241,78.5,240.6,78.1z M174.7,131c3.8,0.2,6.6-0.3,8.3,2.5c0.7,1.2,2.4,2.1,3.2,0.6
		c2.6-4.8,6.4-2.9,11.8-1c-4.4-6.7-7.6-11.9-11.1-16.9c-1.6-2.4-3-0.8-4,0.9C180.4,121.5,177.8,125.9,174.7,131z M224.5,297.8
		c-0.5-4.8,1.2-9-5.2-9.2c-8.1-0.2-4.7,5.8-5.6,9.3c-0.9,4,1.5,4.6,5,4.8C223.7,303.1,225.1,300.9,224.5,297.8z M221.8,122.6
		c-1-1.7-1.5-5-3.6-4.8c-2.4,0.2-4.4,3.4-4.6,5.5c-0.3,2.6,3.1,2.5,5.1,2.6C220.3,126,222.1,125.1,221.8,122.6z"/>
	<path class="st1" d="M194.8,253c12.4-18.3,30.9-27.8,50.8-34.7c26-9,52.5-9.7,79-1.9c34.7,10.2,54.7,33.9,60.6,69.1
		c5.6,34.2-6.5,61.6-33.4,83.4c-13.9,11.3-29.9,16.4-46.4,21.3c-13.5,4.1-26.8,8.8-37.8,18c-19.8,16.4-24.9,38.2-22.5,62.6
		c0.4,4.4,1.8,8.7,1.4,13.2c-0.1,1.3,2.6,2.8,0,3.8c-1.6,0.6-2-1.3-2.7-2.3c-16.3-24-20.4-49.4-6.8-75.8c8.3-16.2,22.3-27,38.5-34.8
		c16-7.7,33.7-10.9,49.8-18.5c23.6-11.1,37.4-33.4,35.8-61.1c-1.5-25.7-15-43.9-39-53.4c-18.2-7.2-37.4-7.4-56.6-6.4
		c-19.7,1.1-38.8,5-57.1,12.6C203.9,250.1,200,253,194.8,253z"/>
	<path class="st1" d="M304.7,432.6c-1.6-3.2-5.2-0.8-7.1-2.8c1.8-8.5,9.5-4,15.1-6.5c-10.3-5.2,0.7-7.4,0.8-11.6
		c-3.5-1.6-4.8,1.5-6.5,3.1c-5.8,5.4-5.7,5.5-9.2-0.9c-0.4,0.3-1,0.6-1,0.8c2.6,8.3-3.3,13.1-7,19.2c-5.1,8.4-5.3,18.1-5,27.8
		c0.1,1.9,1.4,5.3-1.9,5.4c-3.1,0.1-2.3-3.2-2.3-5.3c-0.1-4.2,0.4-8.5-1-12.6c-0.7-1.9-1-3-3.6-1.4c-4.5,2.9-8,0.5-10.5-3.5
		c-0.7-1.1-1.3-2.4-1.6-3.7c-0.8-4.1-4.3-8.5-0.7-12.4c2.2-2.4,13.4,3.3,15.5,7.4c0.9,1.7,2,3.3,3,5.1c2.6-1.4,2.9-3.7,2.5-5.8
		c-1.6-8.2-1.3-15.8,4.5-22.6c6.8-7.9,15.7-11.6,25.6-12.9c13.2-1.8,13.3-1.5,10.5,11.2c-1.9,8.5-3.9,16.9-9.8,23.9
		c-5.1,6.1-11.4,8.4-19,7.5c-2.2-0.3-5.7,0.2-5.6-3.2c0.1-3.4,2.9-4.6,6.1-5C299.2,433.4,302.2,435.1,304.7,432.6z M270.3,436.9
		c-0.1-0.1-0.3-0.2-0.4-0.3C270.1,436.7,270.2,436.8,270.3,436.9c-0.8,3.3,2,5.1,3.6,7.4c0.6,0.8,2.4,1.6,3-0.5
		C277.8,440.8,273.7,436.7,270.3,436.9z"/>
	<path class="st1" d="M302,324.6c4.9,0,9.8-0.1,14.7,0c3.8,0.1,8.9-2.3,9.4,4.7c0,0.3,0.6,0.6,1,0.8c1.6,0.8,4.6-0.2,4.7,2.7
		c0,3-2.6,3-4.9,3.4c-2.3,0.4-2.3,2.3-2.6,4.1c-1.9,11.9-5.1,14.7-16.8,14.8c-5.8,0-11.6,0-17.4,0c-7.9-0.1-12.2-4.1-13.1-12.1
		c-0.2-1.8-0.2-3.5-0.5-5.3c-0.5-3.4-7.4-0.6-5.7-5.4c0.8-2.3,6.1-0.9,6.1-5.6c0.1-2.7,3-2,4.9-2C288.7,324.5,295.3,324.5,302,324.6
		C302,324.6,302,324.6,302,324.6z"/>
	<path class="st0" d="M198.7,365.1c-2.5-10.2,6.3,0.6,6.9-5.5c0,0-1.5-0.2-2.6-0.8c-1.4-0.7-3-1.6-2.5-3.4c0.6-2.2,2.4-1.3,3.9-1.1
		c1.3,0.2,2.9,0.7,3.2-1.1c0.4-1.8-1.4-1.8-2.6-2.3c-3.3-1.5-5.1-7.8-3.2-10.5c1.3-1.8,3.8-1.9,4.7-0.6c4.5,6.5,11.1,4.5,17,4.4
		c5.7-0.1,7.9,1.6,6.6,7.3c-0.5,2.1-0.8,4.5-0.5,6.6c0.5,4.5-1.1,6.8-5.6,8.2c-5.3,1.6-8.4,5.9-9.1,11.4c-0.4,2.9-1.5,4.1-4.5,4.6
		c-12.1,2.3-24.3,1.9-36.6,1.9c-5.4,0-6.1-2.4-4.2-6.6c1.7-3.9,4.5-6.9,8.8-7.4c5.1-0.6,10.2-1.2,14.5-4.4c1.8-1.4,3.3-0.3,4.8,0.8
		c0.6,0.8,1.3,2.1,2.3,1C200.9,366.2,199.5,365.6,198.7,365.1z"/>
	<path class="st1" d="M282.1,171.7c-0.2-3.2,0.6-6.2,2-9c1.5-3.1,2.9-6.4,5.8-0.8c1.2,2.4,2.9,1.5,4.1-0.3
		c3.8-5.9,7.5-11.9,7.3-19.4c0-1.3-0.6-2.8,0.8-3.7c1.5-0.9,2.5,0.5,3.4,1.3c7.4,5.7,12.4,12.6,11,22.7c-0.2,1.1-0.6,2.3,0.8,2.9
		c1.2,0.5,2.2-0.2,2.8-1.2c3.1-4.5,3.8-1.2,4.9,1.4c5.4,13.3-5,28.3-23.5,27.1C289,191.9,282.1,183.7,282.1,171.7z M313.5,179.8
		c-0.1-0.5-0.1-1.9-0.6-2.1c-4.5-1.7-6.3-5.2-7-9.5c-0.2-1.2-1.3-1.8-2.6-0.8c-4,3.2-4.2,8.9-8.6,12.4c-2.3,1.9,4.8,9.4,9.5,9.3
		C308.9,188.9,313.6,184.4,313.5,179.8z"/>
	<path class="st1" d="M304,206.1c-8.3,0-16.5,0-24.8,0c-1.5,0-3.4,0.2-4.2-1.5c-0.9-2,1.7-2.3,2.2-3.5c3.7-9.2,10.1-7.1,17.4-5.4
		c7,1.6,14.3,2,21.6-1.2c6.7-2.9,14.9,2.1,15.5,9c0.3,3.1-2.5,2.5-4.4,2.5c-4,0.1-8-0.1-12-0.1C311.6,206,307.8,206,304,206.1
		C304,206.1,304,206.1,304,206.1z M312.2,200.5c3.3,2.2,6.4,1.4,9.4,1.4c1.5,0,3.5,0,3.4-2.1c-0.1-2.5-2.2-3.5-4.2-3
		C318,197.6,315.4,199.1,312.2,200.5z M292.4,200.7c-0.1-1.8-1.4-2.7-2.7-3.3c-2-0.9-4.3-1.3-6,0.5c-0.5,0.5-1,1.8-0.7,2.3
		c1.2,2.2,3.4,1.3,5.2,1.4C289.6,201.7,291.2,201.9,292.4,200.7z"/>
	<path class="st0" d="M195.9,283.1c-1.6,0.4-2.2-0.3-2.7-1c-0.7-1.1-0.3-2.3,0.5-3c7.7-7.1,15.3-14.3,23.2-21.2
		c2.8-2.5,4.9,0.4,6.9,2c2.2,1.8,4,3.2,5-1c0.5-2.4,2.6-2.1,4.3-2c2.4,0.2,2.9,2.1,2.7,3.9c-0.8,7.2,0.9,13.1,7.4,17.2
		c1.7,1.1,2.6,3.6,0.8,5.2c-2.2,2-3.4-0.5-4.7-1.8c-5.1-4.9-10.5-9.6-15.4-14.8c-3.4-3.6-6.3-3.4-9.7-0.2c-5,4.7-10.2,9.4-15.3,14
		C197.9,281.4,196.7,282.4,195.9,283.1z"/>
	<path class="st0" d="M186.5,387.3c11.9,1.7,24.7-4.4,37.9-2.5c2.1,0.3,5.7-1.6,5.6,2.4c0,3.2-2.4,5.4-5.9,5
		c-4.9-0.5-10.3,1.8-14.7-2.3c-1-1-2.6-0.3-3.8,0.2c-9.8,4.7-20.2,2.1-30.3,2.6c-1.3,0.1-2.8-0.3-3.8-0.9c-1.2-0.8-3-1.6-2.4-3.5
		c0.5-1.6,2.3-1,3.5-1C176.7,387.2,181,387.3,186.5,387.3z"/>
	<path class="st1" d="M276.7,320.8c2-4.1,5.4-4.4,9-4.8c11.1-1.1,22.1-2,33.2,0.1c2.5,0.5,5.7,1.1,5.4,3.9c-0.3,2.9-3.7,1.4-5.7,1.4
		c-13.4,0.1-26.7-0.1-40.1-0.1C278.1,321.3,277.6,321.1,276.7,320.8z"/>
	<path class="st1" d="M280.3,60.2c-1.5-2-2.6-3.9-4.1-5.4c-1.4-1.4-3.1-2.3-5.2-3.8c2.9-2.3,6.3-3.7,7.6-7.2
		c0.4-1.2,1.9-1.9,2.5-0.7c1.6,3,3.6,5.4,6.6,7.1c1.2,0.7,0.5,2.2-0.7,2.5C283.2,53.7,282.3,57.1,280.3,60.2z"/>
	<path class="st1" d="M241,43.8c-0.6-0.3-0.3-0.3-0.2-0.1c4,6.3,4,7.8-0.9,15.5c-1.2-4-7-5.1-6.6-8.5
		C233.6,48.2,238.1,46.2,241,43.8z"/>
	<path class="st1" d="M260.3,39.3c-2.3-1.9-2.6-4.4-4.8-5.5c-3.3-1.7-3.7-3.7,0-5.4c2.1-1,2.2-5.1,4.3-4.4c2.6,0.8,3.3,4.7,6.2,6.2
		c1.3,0.7,0.6,2.7-0.8,3.1C262.3,34.1,261.9,37,260.3,39.3z"/>
	<path class="st0" d="M230,373.4c1.6,7.7-1.5,9.3-6.7,8.6c-2.3-0.3-5.8,1.4-5.7-3.2c0-4.4,5.4-10.7,9.5-10.6
		C232.3,368.2,229.7,372.6,230,373.4z"/>
	<path class="st1" d="M291.7,153.3c-1.1-1.6-0.1-2.8,0.1-4c0.4-1.8-0.8-4.1,1.6-5.1c0.3-0.1,1.3,0.4,1.5,0.9c1.2,2,1.2,4.2,0.1,6.2
		C294.5,152.3,293.6,153.4,291.7,153.3z"/>
	<path class="st1" d="M300.9,308c1.8,0.2,4-0.1,4,2.4c0,1.7-1.6,1.9-2.9,1.8c-1.7-0.1-4,0.5-4.2-1.9
		C297.5,308.4,299.5,308.2,300.9,308z"/>
	<path class="st2" d="M270.4,436.9c-0.2-0.1-0.3-0.2-0.5-0.2C270,436.7,270.2,436.8,270.4,436.9
		C270.3,436.9,270.4,436.9,270.4,436.9z"/>
</g>
</svg>
